# xmcd
#
# Track frame offsets: 
#        150
#        9261
#        19521
#        30605
#        40197
#        48848
#        59165
#        68999
#        78169
#        90271
#        100756
#        113229
#        121658
#        131693
#        142919
#        152920
#        162915
#        175640
#        188150
#        198958
#        211572
#        227585
#        239736
#        250937
#        262848
#        270988
#        279443
#        291951
#        302299
#        320369
#
# Disc length: 4366 seconds
#
# Revision: 3
# Processed by: cddbd v1.5.2PL0 Copyright (c) Steve Scherf et al.
# Submitted via: ExactAudioCopy v1.0b3
#
DISCID=81110c1e
DTITLE=Cash, Johnny - Legacy
DYEAR=2005
DGENRE=Country
TTITLE0=Blue Train
TTITLE1=Get Rhythm
TTITLE2=Cry Cry Cry
TTITLE3=Down The Street To 301
TTITLE4=I Forgot To Remember To Forget
TTITLE5=Straight "A"s In Love
TTITLE6=Hey Porter
TTITLE7=Luther Played The Boogie
TTITLE8=Thanks A Lot
TTITLE9=The Ways Of A Woman In Love
TTITLE10=Give My Love To Rose
TTITLE11=Guess Things Happen That Way
TTITLE12=Ballad Of A Teenage Queen
TTITLE13=Belshazzar
TTITLE14=I Could Never Be Ashamed Of You
TTITLE15=Goodbye Little Darlin', Goodbye
TTITLE16=I Walk The Line
TTITLE17=Ring Of Fire
TTITLE18=Rock Island Line
TTITLE19=Peace In The Valley
TTITLE20=A Boy Named Sue
TTITLE21=Folsom Prison Blues
TTITLE22=Big River
TTITLE23=Sixteen Tons
TTITLE24=The Wall
TTITLE25=I Got Stripes
TTITLE26=Jackson
TTITLE27=If I Were A Carpenter
TTITLE28=Orange Blossom Special
TTITLE29=Casey Jones
EXTD=
EXTT0=
EXTT1=
EXTT2=
EXTT3=
EXTT4=
EXTT5=
EXTT6=
EXTT7=
EXTT8=
EXTT9=
EXTT10=
EXTT11=
EXTT12=
EXTT13=
EXTT14=
EXTT15=
EXTT16=
EXTT17=
EXTT18=
EXTT19=
EXTT20=
EXTT21=
EXTT22=
EXTT23=
EXTT24=
EXTT25=
EXTT26=
EXTT27=
EXTT28=
EXTT29=
PLAYORDER=
